<?xml version="1.0" encoding="UTF-8"?>
<svg xmlns="http://www.w3.org/2000/svg" viewBox="0 0 414.67 414.67">
  <defs>
    <style>
      .cls-1 {
        fill: #161;
      }

      .cls-2 {
        fill: #141414;
      }

      .cls-3 {
        fill: #d9e021;
      }

      .cls-4 {
        opacity: .18;
      }

      .cls-5 {
        isolation: isolate;
      }

      .cls-6 {
        mix-blend-mode: multiply;
        opacity: .22;
      }

      .cls-6, .cls-7 {
        fill: #1a1a1a;
      }

      .cls-8 {
        fill: #d5eceb;
      }

      .cls-9 {
        fill: #5cc8c1;
      }

      .cls-10 {
        fill: #333;
      }

      .cls-11 {
        fill: #2da19a;
      }

      .cls-12 {
        fill: #991217;
      }
    </style>
  </defs>
  <g class="cls-5">
    <g id="Layer_2" data-name="Layer 2">
      <g id="Layer_1-2" data-name="Layer 1">
        <path class="cls-9" d="M405.2,232.26c-5.31,42.45-24.26,83.5-56.84,116.09-5.07,5.07-10.33,9.8-15.78,14.19-30.07,24.32-65.54,38.6-101.97,42.84-48.26,5.66-98.19-6.3-139.38-35.88-8.73-6.26-17.06-13.32-24.9-21.16-77.88-77.88-77.88-204.15,0-282.03,77.88-77.88,204.15-77.88,282.03,0,45.29,45.29,64.25,106.96,56.84,165.95Z"/>
        <path class="cls-11" d="M405.2,232.26c-5.31,42.45-24.26,83.5-56.84,116.09-5.07,5.07-10.33,9.8-15.78,14.19-30.07,24.32-65.54,38.6-101.97,42.84l-75.88-75.88,78.67-245.7,171.79,148.45Z"/>
        <rect class="cls-7" x="195.6" y="324.01" width="23.48" height="79.73"/>
        <path class="cls-10" d="M253.04,102.57v2.03s-91.4,0-91.4,0v-2.03c0-2.43,1.97-4.39,4.39-4.39h82.62c2.43,0,4.39,1.97,4.39,4.39Z"/>
        <g>
          <path class="cls-10" d="M252.42,334.18h-90.17c-3.89,0-7.04-3.2-7.04-7.14v-58.2c0-3.94,3.15-7.14,7.04-7.14h90.17c3.89,0,7.04,3.2,7.04,7.14v58.2c0,3.94-3.15,7.14-7.04,7.14Z"/>
          <path class="cls-10" d="M252.42,255.63h-90.17c-3.89,0-7.04-3.2-7.04-7.14v-58.2c0-3.94,3.15-7.14,7.04-7.14h90.17c3.89,0,7.04,3.2,7.04,7.14v58.2c0,3.94-3.15,7.14-7.04,7.14Z"/>
          <path class="cls-10" d="M252.42,177.08h-90.17c-3.89,0-7.04-3.2-7.04-7.14v-58.2c0-3.94,3.15-7.14,7.04-7.14h90.17c3.89,0,7.04,3.2,7.04,7.14v58.2c0,3.94-3.15,7.14-7.04,7.14Z"/>
        </g>
        <rect class="cls-10" x="161.63" y="104.6" width="91.4" height="229.58"/>
        <rect class="cls-7" x="161.63" y="261.7" width="91.4" height="72.48"/>
        <rect class="cls-7" x="161.63" y="183.15" width="91.4" height="72.48"/>
        <rect class="cls-7" x="161.63" y="104.6" width="91.4" height="72.48"/>
        <polygon class="cls-6" points="253.04 104.6 253.04 177.08 161.63 177.08 253.04 104.6"/>
        <polygon class="cls-6" points="253.04 183.15 253.04 255.63 161.63 255.63 253.04 183.15"/>
        <polygon class="cls-6" points="253.04 261.7 253.04 334.18 161.63 334.18 253.04 261.7"/>
        <path class="cls-10" d="M161.63,336.16v-2.03h91.4v2.03c0,2.43-1.97,4.39-4.39,4.39h-82.62c-2.43,0-4.39-1.97-4.39-4.39Z"/>
        <path class="cls-12" d="M233.4,140.84c0,14.4-11.67,26.06-26.06,26.06-8.27,0-15.64-3.85-20.42-9.85-3.53-4.45-5.65-10.08-5.65-16.21,0-14.4,11.67-26.06,26.06-26.06,8.28,0,15.65,3.86,20.42,9.87h0c3.53,4.45,5.63,10.08,5.63,16.2Z"/>
        <circle class="cls-3" cx="207.34" cy="219.39" r="26.06"/>
        <g class="cls-4">
          <path class="cls-7" d="M234.11,220.11c0,14.4-11.67,26.06-26.06,26.06-8.27,0-15.64-3.85-20.42-9.85v-.02l40.84-32.38h0c3.53,4.45,5.63,10.08,5.63,16.2Z"/>
        </g>
        <circle class="cls-1" cx="207.34" cy="297.94" r="26.06"/>
        <g class="cls-4">
          <path class="cls-7" d="M234.11,141.56c0,14.4-11.67,26.06-26.06,26.06-8.27,0-15.64-3.85-20.42-9.85v-.02l40.84-32.38h0c3.53,4.45,5.63,10.08,5.63,16.2Z"/>
        </g>
        <g class="cls-4">
          <path class="cls-7" d="M234.11,298.66c0,14.4-11.67,26.06-26.06,26.06-8.27,0-15.64-3.85-20.42-9.85v-.02l40.84-32.38h0c3.53,4.45,5.63,10.08,5.63,16.2Z"/>
        </g>
        <path class="cls-7" d="M234.47,98.17h-54.27v-8.81c0-3.81,3.09-6.9,6.9-6.9h40.46c3.81,0,6.9,3.09,6.9,6.9v8.81Z"/>
        <g>
          <path class="cls-2" d="M207.34,271.88c14.37,0,26.06,11.69,26.06,26.06s-11.69,26.06-26.06,26.06-26.06-11.69-26.06-26.06,11.69-26.06,26.06-26.06M207.34,266.88c-17.16,0-31.06,13.91-31.06,31.06s13.91,31.06,31.06,31.06,31.06-13.91,31.06-31.06-13.91-31.06-31.06-31.06h0Z"/>
          <path class="cls-2" d="M207.34,193.33c14.37,0,26.06,11.69,26.06,26.06s-11.69,26.06-26.06,26.06-26.06-11.69-26.06-26.06,11.69-26.06,26.06-26.06M207.34,188.33c-17.16,0-31.06,13.91-31.06,31.06s13.91,31.06,31.06,31.06,31.06-13.91,31.06-31.06-13.91-31.06-31.06-31.06h0Z"/>
          <path class="cls-2" d="M207.34,114.78c14.37,0,26.06,11.69,26.06,26.06s-11.69,26.06-26.06,26.06-26.06-11.69-26.06-26.06,11.69-26.06,26.06-26.06M207.34,109.78c-17.16,0-31.06,13.91-31.06,31.06s13.91,31.06,31.06,31.06,31.06-13.91,31.06-31.06-13.91-31.06-31.06-31.06h0Z"/>
        </g>
        <path class="cls-8" d="M207.34,12.01c52.17,0,101.23,20.32,138.12,57.21,36.89,36.89,57.21,85.94,57.21,138.12s-20.32,101.23-57.21,138.12c-4.91,4.91-10.11,9.59-15.47,13.91-34.51,27.92-78.07,43.29-122.66,43.29-41.15,0-80.47-12.61-113.72-36.49-8.6-6.16-16.8-13.13-24.39-20.72-36.89-36.89-57.21-85.94-57.21-138.12s20.32-101.23,57.21-138.12C106.11,32.33,155.16,12.01,207.34,12.01M207.34,0c-53.06,0-106.12,20.24-146.61,60.73-80.97,80.97-80.97,212.25,0,293.22,8.15,8.15,16.82,15.49,25.89,21.99,35.97,25.83,78.34,38.73,120.71,38.73,46.16,0,92.33-15.33,130.21-45.97,5.66-4.57,11.14-9.5,16.4-14.76,80.97-80.97,80.97-212.25,0-293.22C313.46,20.24,260.4,0,207.34,0h0Z"/>
      </g>
    </g>
  </g>
</svg>